<svg id="Layer_1" data-name="Layer 1" xmlns="http://www.w3.org/2000/svg" xmlns:xlink="http://www.w3.org/1999/xlink" width="2050" height="780" viewBox="0 0 2050 780">
  <defs>
    <style>
      .cls-1 {
        fill: url(#Áåçûìÿííûé_ãðàäèåíò_197);
      }

      .cls-2 {
        font-size: 122.28px;
        fill: #fff;
        font-family: SFProDisplay-Bold, SF Pro Display;
        font-weight: 700;
      }

      .cls-3 {
        letter-spacing: -0.02em;
      }

      .cls-4 {
        letter-spacing: 0em;
      }

      .cls-5 {
        letter-spacing: -0.02em;
      }

      .cls-6 {
        fill: #f7bf36;
      }

      .cls-7 {
        fill: #e28d26;
      }

      .cls-8 {
        fill: #454545;
      }
    </style>
    <linearGradient id="Áåçûìÿííûé_ãðàäèåíò_197" data-name="Áåçûìÿííûé ãðàäèåíò 197" y1="378.7" x2="2050" y2="378.7" gradientUnits="userSpaceOnUse">
      <stop offset="0" stop-color="#ed2586"/>
      <stop offset="1" stop-color="#4f479d"/>
    </linearGradient>
  </defs>
  <path class="cls-1" d="M0,757.4C169.06,446.58,332.5,364.05,451.6,347c289.95-41.52,495.28,279.45,756,177.6,128.29-50.12,135.94-150,300-187.2,149.11-33.83,216.92,32.47,324-9.6C1901.68,300.26,1991.53,225.14,2050,0H0Z"/>
  <text class="cls-2" transform="translate(358.63 219.34) scale(1.03 1)">Hi the<tspan class="cls-3" x="325.52" y="0">r</tspan><tspan class="cls-4" x="367.91" y="0" xml:space="preserve">e        I</tspan><tspan class="cls-5" x="661.61" y="0">’</tspan><tspan class="cls-4" x="694.09" y="0">m Tharindu</tspan></text>
  <path class="cls-6" d="M930.75,165.77c1.34,1.07,2.46,2.38,3.75,3.52s2.36,2.15,3.56,3.21,1.88,1,2.84.34a2.44,2.44,0,0,0,.92-3l-6.39-17.5c-3-8.24-.48-16.3,6.6-21.47a4.59,4.59,0,0,1,7.19,2.16c6.24,16.61,12.56,33.19,18.46,49.94.51,1.45,1.27,2.81,1.73,4.29a31.21,31.21,0,0,1,.38,16.66,51.85,51.85,0,0,1-9.52,19.44,75.32,75.32,0,0,1-20,18.57,37,37,0,0,1-16.24,5.75,35,35,0,0,1-19-3.41,72.94,72.94,0,0,1-14.5-9.66,258.7,258.7,0,0,1-25.68-24.42c-5-5.38-10.11-10.66-15.16-16-3.92-4.14-7.84-8.28-11.71-12.46a12.41,12.41,0,0,1-3.48-6.61,6.69,6.69,0,0,1,.19-2.85,8.73,8.73,0,0,1,7.13-6,7.69,7.69,0,0,1,6,2.29c3.43,3.27,6.66,6.75,9.93,10.18,4.26,4.46,8.5,8.95,12.75,13.42a2,2,0,0,0,1.86.81,1.74,1.74,0,0,0,.88-3c-1-1.13-2.08-2.22-3.13-3.33L839.63,154.4c-3-3.16-3.56-7.05-1.58-10.55a7.33,7.33,0,0,1,10.37-3,16.12,16.12,0,0,1,4,3.16l31.28,32.62a8.27,8.27,0,0,0,.73.72,1.4,1.4,0,0,0,1.94,0,1.45,1.45,0,0,0,.39-2,5.11,5.11,0,0,0-.92-1.15L857,143.64c-2.71-2.88-5.46-5.73-8.11-8.67a9.82,9.82,0,0,1-2.66-7.2,7.86,7.86,0,0,1,8.64-7.25,11.87,11.87,0,0,1,7.33,3.86q18.62,19.49,37.26,38.94c.21.21.41.43.63.62a1.55,1.55,0,0,0,1.91.2,1.77,1.77,0,0,0,.65-2,2.91,2.91,0,0,0-.75-1.17Q891.48,150,881,138.87c-3-3.18-6-6.37-8.93-9.61a9.19,9.19,0,0,1-2.44-5.5,6.41,6.41,0,0,1,.43-2.81,7.67,7.67,0,0,1,9.6-4.66,15.76,15.76,0,0,1,6.56,4.23l19.25,19.54q9.11,9.23,18.24,18.45c1.43,1.45,2.83,2.94,4.25,4.41a6.29,6.29,0,0,1-1.21,1.55,36.94,36.94,0,0,0-8,17.66,41.91,41.91,0,0,0,3.09,23.49,11.43,11.43,0,0,0,1.34,2.45c.67.87,1.44,1.17,2.08.84s.68-.93.48-2a12,12,0,0,0-.93-2.4,38.58,38.58,0,0,1-3.23-12.73,34.85,34.85,0,0,1,8.51-25.53A1.22,1.22,0,0,1,930.75,165.77Z"/>
  <path class="cls-7" d="M930.75,163.77a39.1,39.1,0,0,0-4.42,6.11,36.12,36.12,0,0,0-4.13,11.49,37,37,0,0,0-.39,8.2,34.32,34.32,0,0,0,1.39,7.7,44.8,44.8,0,0,0,2.42,6.46,4.82,4.82,0,0,1,.45,2.21,1.19,1.19,0,0,1-.63,1.16A1.44,1.44,0,0,1,924,207a5.31,5.31,0,0,1-1.89-2.48,42.49,42.49,0,0,1-3.57-12.2,41.19,41.19,0,0,1-.4-7.84,37.78,37.78,0,0,1,3.11-13.35,41.7,41.7,0,0,1,5.82-9.33,3.58,3.58,0,0,1,1-.91C928.93,161.84,929.89,162.75,930.75,163.77Z"/>
  <path class="cls-8" d="M924.26,134.41a2.36,2.36,0,0,1-2.33-1.79,48,48,0,0,0-5.18-10,28.5,28.5,0,0,0-10.37-9.71,19.75,19.75,0,0,0-4.94-1.85,2.38,2.38,0,0,1-2-2.77,2.35,2.35,0,0,1,2.94-1.86,24,24,0,0,1,7.79,3.17,33.21,33.21,0,0,1,10,9.57,52.6,52.6,0,0,1,6.18,11.67,2.77,2.77,0,0,1,.22,1.86A2.35,2.35,0,0,1,924.26,134.41Z"/>
  <path class="cls-8" d="M868.47,229.64a28.4,28.4,0,0,1-15.28-5.34,48.8,48.8,0,0,1-12.81-13.59,2.37,2.37,0,0,1,.58-3.43,2.41,2.41,0,0,1,3.42.9,43.08,43.08,0,0,0,12.73,13,22.91,22.91,0,0,0,12.16,3.73,2.33,2.33,0,0,1,2.34,2.26,2.4,2.4,0,0,1-2.18,2.45C869.11,229.67,868.79,229.64,868.47,229.64Z"/>
  <path class="cls-8" d="M863.08,241.25A34.31,34.31,0,0,1,843.32,233a49,49,0,0,1-6.79-6.94,2.49,2.49,0,0,1-.65-2.11,2.25,2.25,0,0,1,1.75-1.88,2.33,2.33,0,0,1,2.53.93,40.08,40.08,0,0,0,10.22,9.26,27.1,27.1,0,0,0,13.82,4.28,2.38,2.38,0,1,1,0,4.75Z"/>
  <path class="cls-8" d="M936.52,125.85a2.44,2.44,0,0,1-2.15,2.69,2.33,2.33,0,0,1-2.56-2,41.09,41.09,0,0,0-4-12.34,27.32,27.32,0,0,0-10.53-11.35,2.36,2.36,0,1,1,2.39-4.08,29.25,29.25,0,0,1,8.11,6.87c4.25,5,6.66,10.94,8.13,17.28C936.18,124,936.36,125.06,936.52,125.85Z"/>
</svg>
