<svg id="Layer_1" data-name="Layer 1" xmlns="http://www.w3.org/2000/svg" xmlns:xlink="http://www.w3.org/1999/xlink" width="2050" height="780" viewBox="0 0 2050 780">
  <defs>
    <style>
      .cls-1 {
        fill: url(#Áåçûìÿííûé_ãðàäèåíò_197);
      }

      .cls-2 {
        fill: #fff;
      }

      .cls-3 {
        fill: #f7bf36;
      }

      .cls-4 {
        fill: #e28d26;
      }

      .cls-5 {
        fill: #454545;
      }
    </style>
    <linearGradient id="Áåçûìÿííûé_ãðàäèåíò_197" data-name="Áåçûìÿííûé ãðàäèåíò 197" y1="378.7" x2="2050" y2="378.7" gradientUnits="userSpaceOnUse">
      <stop offset="0" stop-color="#ed2586"/>
      <stop offset="1" stop-color="#4f479d"/>
    </linearGradient>
  </defs>
  <path class="cls-1" d="M0,757.4C169.06,446.58,332.5,364.05,451.6,347c289.95-41.52,495.28,279.45,756,177.6,128.29-50.12,135.94-150,300-187.2,149.11-33.83,216.92,32.47,324-9.6C1901.68,300.26,1991.53,225.14,2050,0H0Z"/>
  <g>
    <path class="cls-2" d="M443,219.34H424.49V183H384.56v36.3H366V133.18h18.56v35h39.93v-35H443Z"/>
    <path class="cls-2" d="M472.34,145.66a10.16,10.16,0,0,1-13.64,0,8.81,8.81,0,0,1,0-12.81,10.27,10.27,0,0,1,13.64,0,8.79,8.79,0,0,1,0,12.81Zm-15.79,73.68v-64h17.94v64Z"/>
    <path class="cls-2" d="M516.08,140.58H534v14.75h12.16v13.14H534V199.1q0,7.22,7.74,7.22a27.52,27.52,0,0,0,4.36-.3v12.84a39.85,39.85,0,0,1-8.54.72q-11.61,0-16.55-4.06t-4.95-13.44V168.47H506.8V155.33h9.28Z"/>
    <path class="cls-2" d="M556.44,219.34V133.18h17.63v33.56h.37a19.9,19.9,0,0,1,8-9.35,23.92,23.92,0,0,1,12.74-3.25q10.88,0,16.93,6.42t6,17.58v41.2H600.18v-37.5q0-6.27-3.16-9.76t-9.19-3.49q-6.26,0-9.86,3.91t-3.59,10.3v36.54Z"/>
    <path class="cls-2" d="M673.16,199.75h16.46A22.15,22.15,0,0,1,680,215q-8.21,5.76-20.37,5.76-15.17,0-23.8-8.84t-8.63-24.24q0-15.34,8.6-24.51T658.91,154q14.31,0,22.79,8.72T690.18,186v5.32h-45.4v1.07a15.3,15.3,0,0,0,4.15,11.14,14.6,14.6,0,0,0,11,4.26,16,16,0,0,0,8.48-2.17A10.78,10.78,0,0,0,673.16,199.75Zm-14.07-32.89a13.22,13.22,0,0,0-9.73,3.88,15.18,15.18,0,0,0-4.4,9.91h28a14.69,14.69,0,0,0-4.09-10A13.1,13.1,0,0,0,659.09,166.86Z"/>
    <path class="cls-2" d="M699.39,219.34v-64h17.33v11.53h.36a17.64,17.64,0,0,1,5.78-9.32,15.38,15.38,0,0,1,9.89-3.22,18.72,18.72,0,0,1,5.1.65v15.35a17.56,17.56,0,0,0-6.51-1q-6.65,0-10.32,3.77c-2.46,2.5-3.69,6-3.69,10.5v35.77Z"/>
    <path class="cls-2" d="M786.62,199.75h16.47a22.2,22.2,0,0,1-9.68,15.2q-8.2,5.76-20.36,5.76-15.18,0-23.81-8.84t-8.63-24.24q0-15.34,8.6-24.51T772.37,154q14.31,0,22.79,8.72T803.64,186v5.32h-45.4v1.07a15.3,15.3,0,0,0,4.15,11.14,14.6,14.6,0,0,0,11,4.26,15.94,15.94,0,0,0,8.48-2.17A10.74,10.74,0,0,0,786.62,199.75Zm-14.06-32.89a13.24,13.24,0,0,0-9.74,3.88,15.17,15.17,0,0,0-4.39,9.91h28a14.69,14.69,0,0,0-4.09-10A13.08,13.08,0,0,0,772.56,166.86Z"/>
    <path class="cls-2" d="M1032,219.34h-18.55V133.18H1032Z"/>
    <path class="cls-2" d="M1060.18,166.8h-13.39l4.6-33.62h17Z"/>
    <path class="cls-2" d="M1078.61,219.34v-64h17.32v11.59h.37a18.61,18.61,0,0,1,7.13-9.32,21.91,21.91,0,0,1,23.59,0,16.73,16.73,0,0,1,6.44,9.7h.37a19,19,0,0,1,7.71-9.58,23,23,0,0,1,12.75-3.55q9.7,0,15.63,5.91t5.93,15.58v43.71h-17.94V180q0-5.55-2.76-8.51c-1.84-2-4.51-2.95-8-2.95a10.75,10.75,0,0,0-8.2,3.28,12.09,12.09,0,0,0-3.1,8.66v38.87H1118.6V179.45q0-5.13-2.83-8a10.38,10.38,0,0,0-7.8-2.89,10.75,10.75,0,0,0-8.26,3.4,12.39,12.39,0,0,0-3.17,8.78v38.63Z"/>
    <path class="cls-2" d="M1253.38,219.34h-18.55V148.05h-25.62V133.18h69.85v14.87h-25.68Z"/>
    <path class="cls-2" d="M1288.21,219.34V133.18h17.63v33.56h.37a19.9,19.9,0,0,1,8-9.35,23.92,23.92,0,0,1,12.74-3.25q10.88,0,16.93,6.42t6.05,17.58v41.2H1332v-37.5q0-6.27-3.16-9.76t-9.19-3.49q-6.27,0-9.86,3.91t-3.59,10.3v36.54Z"/>
    <path class="cls-2" d="M1380.85,220.35q-9.52,0-15.79-5.43a17.64,17.64,0,0,1-6.27-14,16.12,16.12,0,0,1,6.64-13.67q6.63-5,19-5.68l16.59-.95v-4.24a8.58,8.58,0,0,0-3-6.93,12.16,12.16,0,0,0-8.08-2.5,13.81,13.81,0,0,0-8,2.14,8.8,8.8,0,0,0-3.77,5.8h-16.41a19.34,19.34,0,0,1,8.3-15.2q7.8-5.76,20.7-5.76,12.66,0,20.27,5.85a18.61,18.61,0,0,1,7.62,15.52v44h-17.32v-9.79h-.37a19.21,19.21,0,0,1-8.23,7.91A25.2,25.2,0,0,1,1380.85,220.35Zm5.9-12.6a15.47,15.47,0,0,0,10.1-3.37,10.5,10.5,0,0,0,4.15-8.51v-4.65l-13.89.83a14.39,14.39,0,0,0-7.77,2.45,6.58,6.58,0,0,0-2.73,5.49,6.76,6.76,0,0,0,2.76,5.68A12,12,0,0,0,1386.75,207.75Z"/>
    <path class="cls-2" d="M1430.18,219.34v-64h17.32v11.53h.37a17.62,17.62,0,0,1,5.77-9.32,15.41,15.41,0,0,1,9.9-3.22,18.59,18.59,0,0,1,5.09.65v15.35a17.56,17.56,0,0,0-6.51-1q-6.63,0-10.32,3.77c-2.46,2.5-3.68,6-3.68,10.5v35.77Z"/>
    <path class="cls-2" d="M1492,145.66a10.16,10.16,0,0,1-13.64,0,8.81,8.81,0,0,1,0-12.81,10.27,10.27,0,0,1,13.64,0,8.81,8.81,0,0,1,0,12.81Zm-15.79,73.68v-64h17.94v64Z"/>
    <path class="cls-2" d="M1506.11,219.34v-64h17.32v11.41h.37a20.51,20.51,0,0,1,7.89-9.35,23.42,23.42,0,0,1,12.69-3.25q10.93,0,16.89,6.33t6,17.61v41.26h-17.94V181.72q0-6.33-3.07-9.73t-9-3.4a12.39,12.39,0,0,0-9.55,3.88,14.33,14.33,0,0,0-3.6,10.15v36.72Z"/>
    <path class="cls-2" d="M1603,220.35q-12.35,0-19.59-8.89t-7.25-24.24q0-15.22,7.28-24.07t19.69-8.83a23,23,0,0,1,12.32,3.28,19.63,19.63,0,0,1,7.77,8.72h.36V133.18h17.94v86.16h-17.69v-11h-.31a19.39,19.39,0,0,1-7.92,8.72A24,24,0,0,1,1603,220.35Zm6.09-52.06a12.66,12.66,0,0,0-10.66,5.13c-2.6,3.43-3.9,8.06-3.9,13.92s1.3,10.52,3.9,13.91a13.72,13.72,0,0,0,21.32,0q4-5.11,4-13.88c0-5.82-1.32-10.44-4-13.89A12.76,12.76,0,0,0,1609.13,168.29Z"/>
    <path class="cls-2" d="M1714.36,155.33v64H1697V207.81h-.37q-5.16,12.72-19.72,12.72-10.82,0-17.26-6.42t-6.45-17.52V155.33h17.93V193q0,6.39,3.17,9.73t9.12,3.34a12.2,12.2,0,0,0,9.46-3.82q3.49-3.81,3.5-10.21V155.33Z"/>
  </g>
  <path class="cls-3" d="M930.75,165.77c1.34,1.07,2.46,2.38,3.75,3.52s2.36,2.15,3.56,3.21,1.88,1,2.84.34a2.44,2.44,0,0,0,.92-3l-6.39-17.5c-3-8.24-.48-16.3,6.6-21.47a4.59,4.59,0,0,1,7.19,2.16c6.24,16.61,12.56,33.19,18.46,49.94.51,1.45,1.27,2.81,1.73,4.29a31.21,31.21,0,0,1,.38,16.66,51.85,51.85,0,0,1-9.52,19.44,75.32,75.32,0,0,1-20,18.57,37,37,0,0,1-16.24,5.75,35,35,0,0,1-19-3.41,72.94,72.94,0,0,1-14.5-9.66,258.7,258.7,0,0,1-25.68-24.42c-5-5.38-10.11-10.66-15.16-16-3.92-4.14-7.84-8.28-11.71-12.46a12.41,12.41,0,0,1-3.48-6.61,6.69,6.69,0,0,1,.19-2.85,8.73,8.73,0,0,1,7.13-6,7.69,7.69,0,0,1,6,2.29c3.43,3.27,6.66,6.75,9.93,10.18,4.26,4.46,8.5,8.95,12.75,13.42a2,2,0,0,0,1.86.81,1.74,1.74,0,0,0,.88-3c-1-1.13-2.08-2.22-3.13-3.33L839.63,154.4c-3-3.16-3.56-7.05-1.58-10.55a7.33,7.33,0,0,1,10.37-3,16.12,16.12,0,0,1,4,3.16l31.28,32.62a8.27,8.27,0,0,0,.73.72,1.4,1.4,0,0,0,1.94,0,1.45,1.45,0,0,0,.39-2,5.11,5.11,0,0,0-.92-1.15L857,143.64c-2.71-2.88-5.46-5.73-8.11-8.67a9.82,9.82,0,0,1-2.66-7.2,7.86,7.86,0,0,1,8.64-7.25,11.87,11.87,0,0,1,7.33,3.86q18.62,19.49,37.26,38.94c.21.21.41.43.63.62a1.55,1.55,0,0,0,1.91.2,1.77,1.77,0,0,0,.65-2,2.91,2.91,0,0,0-.75-1.17Q891.48,150,881,138.87c-3-3.18-6-6.37-8.93-9.61a9.19,9.19,0,0,1-2.44-5.5,6.41,6.41,0,0,1,.43-2.81,7.67,7.67,0,0,1,9.6-4.66,15.76,15.76,0,0,1,6.56,4.23l19.25,19.54q9.11,9.23,18.24,18.45c1.43,1.45,2.83,2.94,4.25,4.41a6.29,6.29,0,0,1-1.21,1.55,36.94,36.94,0,0,0-8,17.66,41.91,41.91,0,0,0,3.09,23.49,11.43,11.43,0,0,0,1.34,2.45c.67.87,1.44,1.17,2.08.84s.68-.93.48-2a12,12,0,0,0-.93-2.4,38.58,38.58,0,0,1-3.23-12.73,34.85,34.85,0,0,1,8.51-25.53A1.22,1.22,0,0,1,930.75,165.77Z"/>
  <path class="cls-4" d="M930.75,163.77a39.1,39.1,0,0,0-4.42,6.11,36.12,36.12,0,0,0-4.13,11.49,37,37,0,0,0-.39,8.2,34.32,34.32,0,0,0,1.39,7.7,44.8,44.8,0,0,0,2.42,6.46,4.82,4.82,0,0,1,.45,2.21,1.19,1.19,0,0,1-.63,1.16A1.44,1.44,0,0,1,924,207a5.31,5.31,0,0,1-1.89-2.48,42.49,42.49,0,0,1-3.57-12.2,41.19,41.19,0,0,1-.4-7.84,37.78,37.78,0,0,1,3.11-13.35,41.7,41.7,0,0,1,5.82-9.33,3.58,3.58,0,0,1,1-.91C928.93,161.84,929.89,162.75,930.75,163.77Z"/>
  <path class="cls-5" d="M924.26,134.41a2.36,2.36,0,0,1-2.33-1.79,48,48,0,0,0-5.18-10,28.5,28.5,0,0,0-10.37-9.71,19.75,19.75,0,0,0-4.94-1.85,2.38,2.38,0,0,1-2-2.77,2.35,2.35,0,0,1,2.94-1.86,24,24,0,0,1,7.79,3.17,33.21,33.21,0,0,1,10,9.57,52.6,52.6,0,0,1,6.18,11.67,2.77,2.77,0,0,1,.22,1.86A2.35,2.35,0,0,1,924.26,134.41Z"/>
  <path class="cls-5" d="M868.47,229.64a28.4,28.4,0,0,1-15.28-5.34,48.8,48.8,0,0,1-12.81-13.59,2.37,2.37,0,0,1,.58-3.43,2.41,2.41,0,0,1,3.42.9,43.08,43.08,0,0,0,12.73,13,22.91,22.91,0,0,0,12.16,3.73,2.33,2.33,0,0,1,2.34,2.26,2.4,2.4,0,0,1-2.18,2.45C869.11,229.67,868.79,229.64,868.47,229.64Z"/>
  <path class="cls-5" d="M863.08,241.25A34.31,34.31,0,0,1,843.32,233a49,49,0,0,1-6.79-6.94,2.49,2.49,0,0,1-.65-2.11,2.25,2.25,0,0,1,1.75-1.88,2.33,2.33,0,0,1,2.53.93,40.08,40.08,0,0,0,10.22,9.26,27.1,27.1,0,0,0,13.82,4.28,2.38,2.38,0,1,1,0,4.75Z"/>
  <path class="cls-5" d="M936.52,125.85a2.44,2.44,0,0,1-2.15,2.69,2.33,2.33,0,0,1-2.56-2,41.09,41.09,0,0,0-4-12.34,27.32,27.32,0,0,0-10.53-11.35,2.36,2.36,0,1,1,2.39-4.08,29.25,29.25,0,0,1,8.11,6.87c4.25,5,6.66,10.94,8.13,17.28C936.18,124,936.36,125.06,936.52,125.85Z"/>
</svg>
